{
    "asset" : {
        "generator" : "Khronos glTF Blender I/O v1.2.75",
        "version" : "2.0"
    },
    "scene" : 0,
    "scenes" : [
        {
            "name" : "Scene",
            "nodes" : [
                0
            ]
        }
    ],
    "nodes" : [
        {
            "mesh" : 0,
            "name" : "agac1.001",
            "translation" : [
                -113215.3046875,
                29304.046875,
                -279021.4375
            ]
        }
    ],
    "materials" : [
        {
            "doubleSided" : true,
            "emissiveFactor" : [
                0,
                0,
                0
            ],
            "name" : "Material.073",
            "pbrMetallicRoughness" : {
                "baseColorFactor" : [
                    0.2667614817619324,
                    0.11180248111486435,
                    0.026149984449148178,
                    1
                ],
                "metallicFactor" : 0,
                "roughnessFactor" : 1
            }
        },
        {
            "doubleSided" : true,
            "emissiveFactor" : [
                0,
                0,
                0
            ],
            "name" : "Material.044",
            "pbrMetallicRoughness" : {
                "baseColorFactor" : [
                    0,
                    0.8000000715255737,
                    0.0072236997075378895,
                    1
                ],
                "metallicFactor" : 0,
                "roughnessFactor" : 1
            }
        }
    ],
    "meshes" : [
        {
            "name" : "Circle.006",
            "primitives" : [
                {
                    "attributes" : {
                        "POSITION" : 0,
                        "NORMAL" : 1
                    },
                    "indices" : 2,
                    "material" : 0
                },
                {
                    "attributes" : {
                        "POSITION" : 3,
                        "NORMAL" : 4
                    },
                    "indices" : 5,
                    "material" : 1
                }
            ]
        }
    ],
    "accessors" : [
        {
            "bufferView" : 0,
            "componentType" : 5126,
            "count" : 214,
            "max" : [
                1684.4609375,
                1019.33984375,
                735.78125
            ],
            "min" : [
                -1260.8984375,
                -4066.1328125,
                -887.09375
            ],
            "type" : "VEC3"
        },
        {
            "bufferView" : 1,
            "componentType" : 5126,
            "count" : 214,
            "type" : "VEC3"
        },
        {
            "bufferView" : 2,
            "componentType" : 5123,
            "count" : 240,
            "type" : "SCALAR"
        },
        {
            "bufferView" : 3,
            "componentType" : 5126,
            "count" : 702,
            "max" : [
                3013.7421875,
                3999.4609375,
                2365.9375
            ],
            "min" : [
                -2740.265625,
                -1279.947265625,
                -2079.25
            ],
            "type" : "VEC3"
        },
        {
            "bufferView" : 4,
            "componentType" : 5126,
            "count" : 702,
            "type" : "VEC3"
        },
        {
            "bufferView" : 5,
            "componentType" : 5123,
            "count" : 702,
            "type" : "SCALAR"
        }
    ],
    "bufferViews" : [
        {
            "buffer" : 0,
            "byteLength" : 2568,
            "byteOffset" : 0
        },
        {
            "buffer" : 0,
            "byteLength" : 2568,
            "byteOffset" : 2568
        },
        {
            "buffer" : 0,
            "byteLength" : 480,
            "byteOffset" : 5136
        },
        {
            "buffer" : 0,
            "byteLength" : 8424,
            "byteOffset" : 5616
        },
        {
            "buffer" : 0,
            "byteLength" : 8424,
            "byteOffset" : 14040
        },
        {
            "buffer" : 0,
            "byteLength" : 1404,
            "byteOffset" : 22464
        }
    ],
    "buffers" : [
        {
            "byteLength" : 23868,
            "uri" : "data:application/octet-stream;base64,"
        }
    ]
}
